<svg width="76" height="23" viewBox="0 0 76 23" fill="none" xmlns="http://www.w3.org/2000/svg">
<path d="M2 10C1.17157 10 0.5 10.6716 0.5 11.5C0.5 12.3284 1.17157 13 2 13V10ZM75.0607 12.5607C75.6464 11.9749 75.6464 11.0251 75.0607 10.4393L65.5147 0.893398C64.9289 0.307611 63.9792 0.307611 63.3934 0.893398C62.8076 1.47919 62.8076 2.42893 63.3934 3.01472L71.8787 11.5L63.3934 19.9853C62.8076 20.5711 62.8076 21.5208 63.3934 22.1066C63.9792 22.6924 64.9289 22.6924 65.5147 22.1066L75.0607 12.5607ZM2 13H74V10H2V13Z" fill="white"/>
</svg>
